<svg width="100" height="100" viewBox="0 0 100 100" fill="none" xmlns="http://www.w3.org/2000/svg">
  <rect width="100" height="100" fill="#0C0A14"/>
  <!-- Outer rim -->
  <circle cx="50" cy="50" r="32" stroke="#D4A843" stroke-width="0.7" stroke-opacity="0.45"/>
  <!-- 8 blade triangles -->
  <path d="M 94,50 L 80.9,41.7 L 80.9,58.3 Z" fill="#D4A843" fill-opacity="0.88"/>
  <path d="M 81.1,81.1 L 77.7,66 L 66,77.7 Z" fill="#D4A843" fill-opacity="0.88"/>
  <path d="M 50,94 L 58.3,80.9 L 41.7,80.9 Z" fill="#D4A843" fill-opacity="0.88"/>
  <path d="M 18.9,81.1 L 34,77.7 L 22.3,66 Z" fill="#D4A843" fill-opacity="0.88"/>
  <path d="M 6,50 L 19.1,58.3 L 19.1,41.7 Z" fill="#D4A843" fill-opacity="0.88"/>
  <path d="M 18.9,18.9 L 22.3,34 L 34,22.3 Z" fill="#D4A843" fill-opacity="0.88"/>
  <path d="M 50,6 L 41.7,19.1 L 58.3,19.1 Z" fill="#D4A843" fill-opacity="0.88"/>
  <path d="M 81.1,18.9 L 66,22.3 L 77.7,34 Z" fill="#D4A843" fill-opacity="0.88"/>
  <!-- Inner ring -->
  <circle cx="50" cy="50" r="20" stroke="#D4A843" stroke-width="0.6" stroke-opacity="0.35"/>
  <!-- 8 spokes -->
  <line x1="59.2" y1="53.8" x2="74.0" y2="59.9" stroke="#D4A843" stroke-width="0.9" stroke-opacity="0.55"/>
  <line x1="53.8" y1="59.2" x2="59.9" y2="74.0" stroke="#D4A843" stroke-width="0.9" stroke-opacity="0.55"/>
  <line x1="46.2" y1="59.2" x2="40.1" y2="74.0" stroke="#D4A843" stroke-width="0.9" stroke-opacity="0.55"/>
  <line x1="40.8" y1="53.8" x2="26.0" y2="59.9" stroke="#D4A843" stroke-width="0.9" stroke-opacity="0.55"/>
  <line x1="40.8" y1="46.2" x2="26.0" y2="40.1" stroke="#D4A843" stroke-width="0.9" stroke-opacity="0.55"/>
  <line x1="46.2" y1="40.8" x2="40.1" y2="26.0" stroke="#D4A843" stroke-width="0.9" stroke-opacity="0.55"/>
  <line x1="53.8" y1="40.8" x2="59.9" y2="26.0" stroke="#D4A843" stroke-width="0.9" stroke-opacity="0.55"/>
  <line x1="59.2" y1="46.2" x2="74.0" y2="40.1" stroke="#D4A843" stroke-width="0.9" stroke-opacity="0.55"/>
  <!-- Hub: bindu point -->
  <circle cx="50" cy="50" r="7" fill="#D4A843"/>
  <circle cx="50" cy="50" r="2.8" fill="#0C0A14"/>
</svg>
